<svg xmlns="http://www.w3.org/2000/svg" viewBox="0 0 512 512" style="enable-background:new 0 0 512 512" xml:space="preserve"><path style="fill:#1f1a78" d="M373.006 424.166h69.478v78.262h-69.478zM69.51 424.166h69.478v78.262H69.51z"/><path style="fill:#495dd9" d="M453.319 312.869 256 280.372 58.681 312.869v33.991l57.985 27.08-57.985 27.08v33.981c0 5.958 4.874 10.832 10.832 10.832h372.973c5.958 0 10.832-4.874 10.832-10.832V401.02l-57.985-27.08 57.985-27.08v-33.991z"/><path style="fill:#48449e" d="M453.319 58.313v37.913L256 139.554 58.681 96.225V58.313c0-26.81 21.935-48.745 48.745-48.745h297.148c26.81 0 48.745 21.935 48.745 48.745z"/><path style="fill:#48449e" d="M11.554 115.542v64.632a8.305 8.305 0 0 0 8.305 8.305h7.706a8.08 8.08 0 0 0 .242-1.937v-66.941c0-5.732 4.647-10.379 10.379-10.379h52.992V98.211H28.885c-9.571 0-17.331 7.76-17.331 17.331zM422.271 98.933v11.972h48.879c5.732 0 10.379 4.647 10.379 10.379v63.181a7.73 7.73 0 0 0 7.729 7.729H493.143c5.279-.026 9.468-4.487 9.468-9.765v-71.58c0-6.581-5.335-11.915-11.915-11.915h-68.425z"/><path style="fill:#6db4f5" d="M58.678 96.222h394.638v216.643H58.678z"/><path style="fill:#85c5ff" d="M255.997 96.222h197.665v216.643H255.997z"/><path style="fill:#fff" d="M58.949 96.222h196.333v216.643H58.949z"/><path style="fill:#ff7945" d="M170.827 346.86v27.08c0 14.948-12.121 27.08-27.08 27.08H58.681v-54.16h112.146zM453.319 346.86v54.161h-85.065c-14.959 0-27.08-12.132-27.08-27.08v-27.08h112.145z"/><path style="fill:#ffd83d" d="M401.869 61.021H110.131c-4.488 0-8.124-3.637-8.124-8.124s3.636-8.124 8.124-8.124H401.87a8.125 8.125 0 0 1-.001 16.248z"/><path d="M418.118 52.897a8.123 8.123 0 0 0-8.124-8.124H102.007c-4.488 0-8.124 3.637-8.124 8.124s3.636 8.124 8.124 8.124h307.987a8.124 8.124 0 0 0 8.124-8.124zM308.678 338.731H203.322a8.123 8.123 0 0 0-8.124 8.124 8.123 8.123 0 0 0 8.124 8.124h105.356a8.123 8.123 0 0 0 8.124-8.124 8.124 8.124 0 0 0-8.124-8.124z"/><path d="M489.794 88.101h-28.348V58.313c0-31.358-25.512-56.869-56.869-56.869H107.423c-31.357 0-56.869 25.511-56.869 56.869v29.788H22.206C9.961 88.101 0 98.063 0 110.307v65.947c0 12.245 9.961 22.206 22.206 22.206h3.975a8.123 8.123 0 0 0 8.124-8.124 8.123 8.123 0 0 0-8.124-8.124h-3.975a5.965 5.965 0 0 1-5.958-5.958v-65.947a5.965 5.965 0 0 1 5.958-5.958h28.348v330.652c0 7.542 4.439 14.051 10.832 17.101v50.33a8.123 8.123 0 0 0 8.124 8.124h69.483a8.123 8.123 0 0 0 8.124-8.124V478.33a8.123 8.123 0 0 0-8.124-8.124 8.123 8.123 0 0 0-8.124 8.124v15.977H77.634v-40.35h356.732v40.35h-53.234V478.33c0-4.487-3.636-8.124-8.124-8.124s-8.124 3.637-8.124 8.124v24.102a8.123 8.123 0 0 0 8.124 8.124h69.482a8.123 8.123 0 0 0 8.124-8.124v-50.33c6.393-3.05 10.832-9.558 10.832-17.101V104.35h28.348a5.965 5.965 0 0 1 5.958 5.958v65.947a5.965 5.965 0 0 1-5.958 5.958h-3.975a8.123 8.123 0 0 0-8.124 8.124 8.123 8.123 0 0 0 8.124 8.124h3.975c12.245 0 22.206-9.961 22.206-22.206v-65.947c0-12.245-9.961-22.207-22.206-22.207zM66.802 58.313c0-22.399 18.222-40.621 40.621-40.621h297.155c22.399 0 40.621 18.222 40.621 40.621v29.788H66.802V58.313zm378.396 334.579h-76.944c-10.452 0-18.956-8.504-18.956-18.956V354.98h71.528a8.123 8.123 0 0 0 8.124-8.124 8.123 8.123 0 0 0-8.124-8.124h-79.652a8.123 8.123 0 0 0-8.124 8.124v27.08c0 19.411 15.792 35.205 35.205 35.205h76.944v25.862c0 1.468-1.24 2.708-2.708 2.708H69.51c-1.468 0-2.708-1.24-2.708-2.708V409.14h76.944c19.412 0 35.205-15.793 35.205-35.205v-27.08a8.123 8.123 0 0 0-8.124-8.124H91.174a8.123 8.123 0 0 0-8.124 8.124 8.123 8.123 0 0 0 8.124 8.124h71.528v18.956c0 10.452-8.504 18.956-18.956 18.956H66.802V104.35h181.074v200.395H91.174c-4.488 0-8.124 3.637-8.124 8.124s3.636 8.124 8.124 8.124h329.651c4.488 0 8.124-3.637 8.124-8.124s-3.636-8.124-8.124-8.124H264.124V104.35h181.074v288.542z"/></svg>